<svg width="32" height="32" viewBox="0 0 32 32" fill="none" xmlns="http://www.w3.org/2000/svg">
<circle cx="16" cy="16" r="16" fill="#1B1B1B"/>
<g clip-path="url(#clip0)">
<path d="M16.0023 12.4058C14.0172 12.4058 12.4102 14.0146 12.4102 15.9979C12.4102 17.983 14.019 19.5901 16.0023 19.5901C17.9874 19.5901 19.5945 17.9813 19.5945 15.9979C19.5945 14.0128 17.9857 12.4058 16.0023 12.4058ZM16.0023 18.3295C14.7137 18.3295 13.6707 17.2859 13.6707 15.9979C13.6707 14.7099 14.7143 13.6663 16.0023 13.6663C17.2903 13.6663 18.3339 14.7099 18.3339 15.9979C18.3345 17.2859 17.2909 18.3295 16.0023 18.3295Z" fill="white"/>
<path d="M18.8865 9.04495C17.5985 8.98487 14.4082 8.98779 13.119 9.04495C11.9862 9.09804 10.987 9.37162 10.1814 10.1772C8.83505 11.5235 9.00713 13.3377 9.00713 15.9983C9.00713 18.7213 8.85547 20.4935 10.1814 21.8194C11.533 23.1704 13.3734 22.9936 16.0025 22.9936C18.6998 22.9936 19.6308 22.9954 20.5845 22.6261C21.8813 22.1227 22.8601 20.9636 22.9558 18.8817C23.0165 17.5931 23.013 14.4035 22.9558 13.1143C22.8403 10.6567 21.5214 9.16629 18.8865 9.04495ZM20.9252 20.9286C20.0426 21.8112 18.8182 21.7325 15.9855 21.7325C13.0689 21.7325 11.8993 21.7756 11.0459 20.9199C10.063 19.9416 10.2409 18.3707 10.2409 15.989C10.2409 12.766 9.91013 10.445 13.1447 10.2793C13.8879 10.253 14.1066 10.2443 15.9774 10.2443L16.0036 10.2618C19.1122 10.2618 21.5511 9.93629 21.6975 13.1703C21.7308 13.9082 21.7384 14.1299 21.7384 15.9977C21.7378 18.8805 21.7926 20.0571 20.9252 20.9286Z" fill="white"/>
<path d="M19.7359 13.1032C20.1995 13.1032 20.5753 12.7273 20.5753 12.2637C20.5753 11.8001 20.1995 11.4243 19.7359 11.4243C19.2723 11.4243 18.8965 11.8001 18.8965 12.2637C18.8965 12.7273 19.2723 13.1032 19.7359 13.1032Z" fill="white"/>
</g>
<defs>
<clipPath id="clip0">
<rect width="14" height="14" fill="white" transform="translate(9 9)"/>
</clipPath>
</defs>
</svg>
