<svg width="16" height="10" viewBox="0 0 16 10" fill="none" xmlns="http://www.w3.org/2000/svg">
<g clip-path="url(#clip0)">
<path d="M9.98893 4.99405C9.98893 7.76141 7.75326 10.0037 4.99447 10.0037C2.23567 10.0037 0 7.76091 0 4.99405C0 2.22718 2.23622 -0.015625 4.99447 -0.015625C7.75271 -0.015625 9.98893 2.22718 9.98893 4.99405Z" fill="#E2574C"/>
<path d="M10.9926 -0.015625C9.87248 -0.015625 8.8413 0.358606 8.00798 0.983331L8.01198 0.983825C8.17587 1.14262 8.3567 1.25437 8.49609 1.43718L7.45692 1.45372C7.29407 1.61855 7.14568 1.79789 7.00579 1.98426H8.83829C8.97768 2.15207 9.10656 2.29789 9.22349 2.48322H6.67357C6.58015 2.64454 6.49374 2.81036 6.41829 2.98267H9.51379C9.59472 3.15448 9.66716 3.28426 9.72864 3.46613H6.23494C6.17949 3.63899 6.13204 3.8158 6.09604 3.99613H9.875C9.91198 4.16948 9.94042 4.32976 9.95993 4.49311H6.02108C6.00459 4.65795 5.99609 4.82525 5.99609 4.9941H9.98837C9.98837 5.17146 9.97587 5.33575 9.9579 5.49509H6.02108C6.03807 5.66492 6.06305 5.83174 6.09604 5.99608H9.86897C9.83001 6.15839 9.78503 6.32168 9.72859 6.49102H6.22344C6.27637 6.66234 6.34086 6.82866 6.41127 6.99097H9.51379C9.42787 7.17333 9.33045 7.3191 9.22305 7.48992H6.66464C6.76557 7.66525 6.87697 7.83256 6.99785 7.99289L8.83834 8.02042C8.68146 8.20926 8.48015 8.323 8.29675 8.48833C8.30672 8.49635 8.00349 8.48734 7.40645 8.47783C8.31472 9.41767 9.5842 10.0038 10.9925 10.0038C13.7518 10.0038 15.9885 7.76091 15.9885 4.9941C15.9885 2.22729 13.7523 -0.015625 10.9926 -0.015625Z" fill="#F4B459"/>
</g>
<defs>
<clipPath id="clip0">
<rect width="16" height="10" fill="white"/>
</clipPath>
</defs>
</svg>
