<svg width="37" height="10" viewBox="0 0 37 10" fill="none" xmlns="http://www.w3.org/2000/svg">
<path fill-rule="evenodd" clip-rule="evenodd" d="M9.97033 1.90259e-07V0.004367C9.96576 0.004367 8.52509 1.66581e-07 8.14091 1.31441C7.78875 2.51965 6.79629 5.84716 6.76885 5.93886H6.49444C6.49444 5.93886 5.47911 2.53712 5.12237 1.31004C4.7382 -0.00436666 3.29295 1.90259e-07 3.29295 1.90259e-07H0V10H3.29295V4.06114H3.43016H3.56737L5.48826 10H7.77503L9.69592 4.0655H9.97033V10H13.2633V1.90259e-07H9.97033Z" fill="#4DB45E"/>
<path fill-rule="evenodd" clip-rule="evenodd" d="M21.9993 0C21.9993 0 21.0343 0.0829694 20.5815 1.04803L18.249 5.93886H17.9746V0H14.6816V10H17.7917C17.7917 10 18.8024 9.91266 19.2552 8.95196L21.542 4.06114H21.8164V10H25.1093V0H21.9993Z" fill="#4DB45E"/>
<path fill-rule="evenodd" clip-rule="evenodd" d="M26.5723 4.5415V10H29.8652V6.81225H33.4326C34.9876 6.81225 36.3048 5.86465 36.7942 4.5415H26.5723Z" fill="#4DB45E"/>
<path fill-rule="evenodd" clip-rule="evenodd" d="M33.4316 0H26.1094C26.4753 1.90393 27.9708 3.43231 29.9054 3.93013C30.3445 4.04367 30.8064 4.1048 31.2821 4.1048H36.9258C36.9761 3.87773 36.999 3.64629 36.999 3.40611C36.999 1.52402 35.4028 0 33.4316 0Z" fill="url(#paint0_linear)"/>
<defs>
<linearGradient id="paint0_linear" x1="26.1103" y1="2.0524" x2="36.999" y2="2.0524" gradientUnits="userSpaceOnUse">
<stop offset="0.3" stop-color="#00B4E6"/>
<stop offset="1" stop-color="#088CCB"/>
</linearGradient>
</defs>
</svg>
