<svg width="32" height="10" viewBox="0 0 32 10" fill="none" xmlns="http://www.w3.org/2000/svg">
<path d="M13.0701 0.0249023L11.4654 9.92947H14.0304L15.6341 0.0249023H13.0701ZM20.8069 4.05947C19.9106 3.62045 19.3611 3.32414 19.3611 2.87512C19.3721 2.46686 19.8258 2.0486 20.8389 2.0486C21.6722 2.02784 22.2847 2.22208 22.7494 2.41534L22.9821 2.51838L23.3309 0.446098C22.8242 0.251859 22.0209 0.0378367 21.0287 0.0378367C18.4958 0.0378367 16.7122 1.34403 16.7012 3.21218C16.6802 4.59077 17.9781 5.35577 18.9494 5.81468C19.9416 6.28545 20.2793 6.59066 20.2793 7.00892C20.2684 7.6511 19.477 7.9474 18.7386 7.9474C17.7155 7.9474 17.1659 7.79479 16.3316 7.43697L15.9939 7.28436L15.6352 9.43795C16.2377 9.7036 17.3458 9.9374 18.4959 9.94936C21.1877 9.94936 22.9393 8.66294 22.9613 6.67197C22.9701 5.57979 22.2857 4.74327 20.8069 4.05947ZM29.9065 0.0555543H27.9221C27.3106 0.0555543 26.8459 0.230011 26.5812 0.852402L22.7712 9.92947H25.463L26.2044 7.96425H29.216L29.6007 9.9374H31.9748L29.9065 0.0555543ZM26.9509 5.98099C27.0029 5.98599 27.9841 2.77295 27.9841 2.77295L28.7655 5.98099C28.7655 5.98099 27.4575 5.98099 26.9509 5.98099ZM9.3222 0.0249023L6.80921 6.75414L6.53546 5.42708C6.0708 3.89588 4.61403 2.23197 2.98828 1.40545L5.28943 9.91958H8.00329L12.0361 0.0259887H9.3222V0.0249023Z" fill="#2394BC"/>
<path d="M5.68942 1.30278C5.49359 0.547561 4.86904 0.0382133 4.02082 0.0273438H0.0409863L0 0.210604C3.10455 0.969735 5.71036 3.3056 6.55573 5.50278L5.68942 1.30278Z" fill="#EFC75E"/>
</svg>
