<svg width="32" height="32" viewBox="0 0 32 32" fill="none" xmlns="http://www.w3.org/2000/svg">
<circle cx="16" cy="16" r="16" fill="#1B1B1B"/>
<g clip-path="url(#clip0)">
<path d="M20.6171 16.5995C20.3908 16.3137 20.4555 16.1865 20.6171 15.931C20.62 15.9281 22.4884 13.3463 22.6809 12.4707L22.6821 12.4701C22.7778 12.151 22.6821 11.9165 22.2195 11.9165H20.6888C20.2992 11.9165 20.1195 12.1178 20.0233 12.3429C20.0233 12.3429 19.2439 14.2084 18.1414 15.4177C17.7856 15.7671 17.6211 15.8791 17.4268 15.8791C17.3312 15.8791 17.1824 15.7671 17.1824 15.448V12.4701C17.1824 12.0874 17.0733 11.9165 16.7508 11.9165H14.3439C14.0995 11.9165 13.9543 12.095 13.9543 12.2613C13.9543 12.6241 14.5055 12.7075 14.5627 13.7283V15.9433C14.5627 16.4286 14.4746 16.5178 14.2792 16.5178C13.7588 16.5178 12.4959 14.6448 11.7475 12.501C11.5964 12.0851 11.4488 11.9171 11.0563 11.9171H9.525C9.08808 11.9171 9 12.1183 9 12.3435C9 12.7413 9.52033 14.7194 11.4197 17.3328C12.6855 19.1166 14.4682 20.0832 16.0898 20.0832C17.0646 20.0832 17.1836 19.8685 17.1836 19.4993C17.1836 17.7948 17.0955 17.6338 17.5838 17.6338C17.8101 17.6338 18.1997 17.7458 19.1098 18.6062C20.1498 19.6264 20.3208 20.0832 20.9029 20.0832H22.4336C22.8699 20.0832 23.091 19.8685 22.9638 19.445C22.6728 18.5543 20.7058 16.722 20.6171 16.5995Z" fill="white"/>
</g>
<defs>
<clipPath id="clip0">
<rect width="14" height="14" fill="white" transform="translate(9 9)"/>
</clipPath>
</defs>
</svg>
