<svg width="10" height="10" viewBox="0 0 10 10" fill="none" xmlns="http://www.w3.org/2000/svg">
<path d="M5.55246 5.00101L9.88559 0.667838C10.0381 0.515279 10.0381 0.267935 9.88559 0.115396C9.73303 -0.0371436 9.48569 -0.0371631 9.33315 0.115396L5 4.44856L0.666859 0.115396C0.514301 -0.0371631 0.266957 -0.0371631 0.114419 0.115396C-0.03812 0.267954 -0.0381396 0.515298 0.114419 0.667838L4.44755 5.00099L0.114419 9.33416C-0.0381396 9.48672 -0.0381396 9.73406 0.114419 9.8866C0.190688 9.96287 0.290668 10.001 0.390649 10.001C0.490629 10.001 0.59059 9.96287 0.666879 9.8866L5 5.55345L9.33313 9.8866C9.4094 9.96287 9.50938 10.001 9.60936 10.001C9.70934 10.001 9.8093 9.96287 9.88559 9.8866C10.0381 9.73404 10.0381 9.4867 9.88559 9.33416L5.55246 5.00101Z" fill="#1B1B1B"/>
</svg>
