<svg width="32" height="32" viewBox="0 0 32 32" fill="none" xmlns="http://www.w3.org/2000/svg">
<circle cx="16" cy="16" r="16" fill="#1B1B1B"/>
<g clip-path="url(#clip0)">
<path d="M22.6904 12.4169L22.7079 12.5313C22.5388 11.931 22.082 11.4678 21.5016 11.2993L21.4893 11.2963C20.3979 11 16.006 11 16.006 11C16.006 11 11.6252 10.9942 10.5227 11.2963C9.93117 11.4678 9.47384 11.931 9.30759 12.519L9.30467 12.5313C8.89692 14.661 8.894 17.2201 9.32276 19.5003L9.30467 19.3848C9.47384 19.9851 9.93059 20.4483 10.511 20.6168L10.5233 20.6198C11.6135 20.9167 16.0066 20.9167 16.0066 20.9167C16.0066 20.9167 20.3868 20.9167 21.4899 20.6198C22.082 20.4483 22.5393 19.9851 22.7056 19.3971L22.7085 19.3848C22.894 18.3943 23.0002 17.2545 23.0002 16.0902C23.0002 16.0476 23.0002 16.0044 22.9996 15.9613C23.0002 15.9216 23.0002 15.8743 23.0002 15.8271C23.0002 14.6622 22.894 13.5223 22.6904 12.4169ZM14.6048 18.0881V13.8338L18.26 15.9642L14.6048 18.0881Z" fill="white"/>
</g>
<defs>
<clipPath id="clip0">
<rect width="14" height="14" fill="white" transform="translate(9 9)"/>
</clipPath>
</defs>
</svg>
